# xmcd CD database file
#
# Track frame offsets:
#	150
#	12858
#	32007
#	66270
#	85754
#	105784
#	126606
#	141132
#	172467
#	196767
#	221808
#	228085
#	250406
#	286646
#
# Disc length: 4332 seconds
#
# Revision: 0
# Processed by: cddbd v1.5.1PL0 Copyright (c) Steve Scherf et al.
# Submitted via: CDex 1.51
#
DISCID=c310ea0e
DTITLE=noTanBig - De Todo Un Poco
DYEAR=2004
DGENRE=Jazz
TTITLE0=Like Someone in Love
TTITLE1=Love You Macly
TTITLE2=From Minor to Major
TTITLE3=Sweet Georgia Brown
TTITLE4=Scrapple from the Apple
TTITLE5=Sophisticated Lady
TTITLE6=Take The A Train
TTITLE7=Splanky
TTITLE8=caravan
TTITLE9=Mercy, Mercy, Mercy
TTITLE10=Bass Intro Chiken
TTITLE11=Chiken
TTITLE12=Cantaloupe Island
TTITLE13=Demo Multimedia
EXTD=YEAR: 2004
EXTT0=
EXTT1=
EXTT2=
EXTT3=
EXTT4=
EXTT5=
EXTT6=
EXTT7=
EXTT8=
EXTT9=
EXTT10=
EXTT11=
EXTT12=
EXTT13=
PLAYORDER=
